<svg width="20" height="20" viewBox="0 0 20 20" fill="none" xmlns="http://www.w3.org/2000/svg">
<path d="M5.83332 1.875H4.37499C4.15398 1.875 3.94201 1.9628 3.78573 2.11908C3.62945 2.27536 3.54166 2.48732 3.54166 2.70833V17.2917C3.54166 17.5127 3.62945 17.7246 3.78573 17.8809C3.94201 18.0372 4.15398 18.125 4.37499 18.125H15.625C15.846 18.125 16.058 18.0372 16.2142 17.8809C16.3705 17.7246 16.4583 17.5127 16.4583 17.2917V2.70833C16.4583 2.48732 16.3705 2.27536 16.2142 2.11908C16.058 1.9628 15.846 1.875 15.625 1.875H9.99999" stroke="#5E5B5B" stroke-linecap="round" stroke-linejoin="round"/>
<path d="M5 1.87508L5.58917 1.28591C5.74541 1.12962 5.95734 1.0418 6.17833 1.04175H9.58333C9.69384 1.04175 9.79982 1.08565 9.87796 1.16379C9.9561 1.24193 10 1.34791 10 1.45841V11.8751L7.91667 9.79175L5.83333 11.8751V1.87508M5.83333 15.8334H14.1667M10 4.16675H14.1667M10 7.08342H14.1667M10 10.0001H14.1667M5.83333 12.9167H14.1667" stroke="#5E5B5B" stroke-linecap="round" stroke-linejoin="round"/>
</svg>
