<svg width="30" height="30" viewBox="0 0 30 30" fill="none" xmlns="http://www.w3.org/2000/svg">
<g clip-path="url(#clip0_52_727)">
<path d="M5.625 4.6875C5.625 4.43886 5.72377 4.2004 5.89959 4.02459C6.0754 3.84877 6.31386 3.75 6.5625 3.75H15.9375C16.1861 3.75 16.4246 3.84877 16.6004 4.02459C16.7762 4.2004 16.875 4.43886 16.875 4.6875V14.0625C16.875 14.3111 16.7762 14.5496 16.6004 14.7254C16.4246 14.9012 16.1861 15 15.9375 15H6.5625C6.31386 15 6.0754 14.9012 5.89959 14.7254C5.72377 14.5496 5.625 14.3111 5.625 14.0625V4.6875Z" fill="#646262"/>
<path d="M1.875 3.75C1.875 2.75544 2.27009 1.80161 2.97335 1.09835C3.67661 0.395088 4.63044 0 5.625 0L16.875 0C17.8696 0 18.8234 0.395088 19.5267 1.09835C20.2299 1.80161 20.625 2.75544 20.625 3.75V18.75C21.6196 18.75 22.5734 19.1451 23.2767 19.8484C23.9799 20.5516 24.375 21.5054 24.375 22.5V23.4375C24.375 23.6861 24.4738 23.9246 24.6496 24.1004C24.8254 24.2762 25.0639 24.375 25.3125 24.375C25.5611 24.375 25.7996 24.2762 25.9754 24.1004C26.1512 23.9246 26.25 23.6861 26.25 23.4375V15H25.3125C25.0639 15 24.8254 14.9012 24.6496 14.7254C24.4738 14.5496 24.375 14.3111 24.375 14.0625V8.20312C24.375 7.95448 24.4738 7.71603 24.6496 7.54021C24.8254 7.3644 25.0639 7.26562 25.3125 7.26562H28.1156C28.095 6.37313 28.0163 5.58938 27.7388 4.97438C27.5902 4.61678 27.3314 4.31593 27 4.11562C26.655 3.90937 26.13 3.75 25.3125 3.75C25.0639 3.75 24.8254 3.65123 24.6496 3.47541C24.4738 3.2996 24.375 3.06114 24.375 2.8125C24.375 2.56386 24.4738 2.3254 24.6496 2.14959C24.8254 1.97377 25.0639 1.875 25.3125 1.875C26.37 1.875 27.2513 2.08125 27.96 2.505C28.6781 2.9325 29.1488 3.53813 29.4488 4.20563C30.0019 5.43375 30 6.9525 30 8.1075V14.0606C30.0002 14.1839 29.9762 14.306 29.9292 14.42C29.8822 14.5339 29.8132 14.6375 29.7261 14.7247C29.639 14.812 29.5356 14.8812 29.4217 14.9285C29.3078 14.9757 29.1858 15 29.0625 15H28.125V23.4375C28.125 24.1834 27.8287 24.8988 27.3012 25.4262C26.7738 25.9537 26.0584 26.25 25.3125 26.25C24.5666 26.25 23.8512 25.9537 23.3238 25.4262C22.7963 24.8988 22.5 24.1834 22.5 23.4375V22.5C22.5 22.0027 22.3025 21.5258 21.9508 21.1742C21.5992 20.8225 21.1223 20.625 20.625 20.625V28.125H21.5625C21.8111 28.125 22.0496 28.2238 22.2254 28.3996C22.4012 28.5754 22.5 28.8139 22.5 29.0625C22.5 29.3111 22.4012 29.5496 22.2254 29.7254C22.0496 29.9012 21.8111 30 21.5625 30H0.9375C0.68886 30 0.450403 29.9012 0.274587 29.7254C0.0987721 29.5496 0 29.3111 0 29.0625C0 28.8139 0.0987721 28.5754 0.274587 28.3996C0.450403 28.2238 0.68886 28.125 0.9375 28.125H1.875V3.75ZM18.75 3.75C18.75 3.25272 18.5525 2.77581 18.2008 2.42417C17.8492 2.07254 17.3723 1.875 16.875 1.875H5.625C5.12772 1.875 4.65081 2.07254 4.29917 2.42417C3.94754 2.77581 3.75 3.25272 3.75 3.75V28.125H18.75V3.75Z" fill="#646262"/>
</g>
<defs>
<clipPath id="clip0_52_727">
<rect width="30" height="30" fill="white"/>
</clipPath>
</defs>
</svg>
