<svg width="32" height="32" viewBox="0 0 32 32" fill="none" xmlns="http://www.w3.org/2000/svg">
<path d="M11.0812 1.65053C10.8562 1.65365 10.625 1.67303 10.3812 1.71053C9.1625 1.89678 8.3375 2.2699 7.86875 2.73865C7.4 3.20803 7.2125 3.7749 7.3125 4.61365C7.39375 5.26928 7.5125 5.60115 7.64375 5.81615C7.78125 6.03178 7.9625 6.18303 8.3 6.4374C8.95 6.9249 10.0125 7.73115 11.4187 9.8999C11.925 10.0499 12.3437 10.0312 12.7687 9.89365C13.1437 9.7749 13.5187 9.55615 13.8937 9.2749C13.6937 8.4499 13.8187 7.66865 13.9875 6.9749C14.1875 6.16053 14.425 5.42865 14.425 4.73053C14.425 3.1774 13.3187 1.72428 11.3 1.6524C11.2312 1.6499 11.1562 1.64928 11.0812 1.65053ZM13.9 10.6187C13.65 10.7562 13.3937 10.8812 13.1125 10.9687C12.7937 11.0687 12.45 11.1249 12.1 11.1249L14.9937 21.4749L16.8125 21.0187L13.9 10.6187ZM21.4875 21.0749C21.3937 21.0749 21.2937 21.0874 21.1937 21.1124L11.2687 23.3999C10.2062 23.6437 10.0125 24.7687 10.4562 25.4312C9.41875 25.7374 9.1625 26.9062 9.5875 27.6749C7.74375 28.0124 7.875 30.6499 10 30.6499H23.5875C25.85 30.6499 25.85 27.6374 23.5875 27.6374H17.225L23.05 26.9562C25.0437 26.7249 24.7812 23.7312 22.7812 23.9624L17.7937 24.5437L17.775 24.4749L21.625 23.5937C23.15 23.2437 22.8937 21.1062 21.55 21.0749H21.4875Z" fill="#646262"/>
</svg>
