<svg width="61" height="22" viewBox="0 0 61 22" fill="none" xmlns="http://www.w3.org/2000/svg">
<path d="M0.992 0.199999H4.88V13.832H13.304V17H0.992V0.199999ZM21.2626 17.192C19.9026 17.192 18.6786 16.912 17.5906 16.352C16.5186 15.776 15.6786 14.984 15.0706 13.976C14.4626 12.968 14.1586 11.824 14.1586 10.544C14.1586 9.264 14.4626 8.12 15.0706 7.112C15.6786 6.104 16.5186 5.32 17.5906 4.76C18.6786 4.184 19.9026 3.896 21.2626 3.896C22.6226 3.896 23.8386 4.184 24.9106 4.76C25.9826 5.32 26.8226 6.104 27.4306 7.112C28.0386 8.12 28.3426 9.264 28.3426 10.544C28.3426 11.824 28.0386 12.968 27.4306 13.976C26.8226 14.984 25.9826 15.776 24.9106 16.352C23.8386 16.912 22.6226 17.192 21.2626 17.192ZM21.2626 14.12C22.2226 14.12 23.0066 13.8 23.6146 13.16C24.2386 12.504 24.5506 11.632 24.5506 10.544C24.5506 9.456 24.2386 8.592 23.6146 7.952C23.0066 7.296 22.2226 6.968 21.2626 6.968C20.3026 6.968 19.5106 7.296 18.8866 7.952C18.2626 8.592 17.9506 9.456 17.9506 10.544C17.9506 11.632 18.2626 12.504 18.8866 13.16C19.5106 13.8 20.3026 14.12 21.2626 14.12ZM44.1652 4.088V14.84C44.1652 17.208 43.5492 18.968 42.3172 20.12C41.0852 21.272 39.2852 21.848 36.9172 21.848C35.6692 21.848 34.4852 21.696 33.3652 21.392C32.2452 21.088 31.3172 20.648 30.5812 20.072L32.0692 17.384C32.6132 17.832 33.3012 18.184 34.1332 18.44C34.9652 18.712 35.7972 18.848 36.6292 18.848C37.9252 18.848 38.8772 18.552 39.4852 17.96C40.1092 17.384 40.4212 16.504 40.4212 15.32V14.768C39.4452 15.84 38.0852 16.376 36.3412 16.376C35.1572 16.376 34.0692 16.12 33.0772 15.608C32.1012 15.08 31.3252 14.344 30.7492 13.4C30.1732 12.456 29.8852 11.368 29.8852 10.136C29.8852 8.904 30.1732 7.816 30.7492 6.872C31.3252 5.928 32.1012 5.2 33.0772 4.688C34.0692 4.16 35.1572 3.896 36.3412 3.896C38.2132 3.896 39.6372 4.512 40.6132 5.744V4.088H44.1652ZM37.0852 13.304C38.0772 13.304 38.8852 13.016 39.5092 12.44C40.1492 11.848 40.4692 11.08 40.4692 10.136C40.4692 9.192 40.1492 8.432 39.5092 7.856C38.8852 7.264 38.0772 6.968 37.0852 6.968C36.0932 6.968 35.2772 7.264 34.6372 7.856C33.9972 8.432 33.6772 9.192 33.6772 10.136C33.6772 11.08 33.9972 11.848 34.6372 12.44C35.2772 13.016 36.0932 13.304 37.0852 13.304ZM53.7939 17.192C52.4339 17.192 51.2099 16.912 50.1219 16.352C49.0499 15.776 48.2099 14.984 47.6019 13.976C46.9939 12.968 46.6899 11.824 46.6899 10.544C46.6899 9.264 46.9939 8.12 47.6019 7.112C48.2099 6.104 49.0499 5.32 50.1219 4.76C51.2099 4.184 52.4339 3.896 53.7939 3.896C55.1539 3.896 56.3699 4.184 57.4419 4.76C58.5139 5.32 59.3539 6.104 59.9619 7.112C60.5699 8.12 60.8739 9.264 60.8739 10.544C60.8739 11.824 60.5699 12.968 59.9619 13.976C59.3539 14.984 58.5139 15.776 57.4419 16.352C56.3699 16.912 55.1539 17.192 53.7939 17.192ZM53.7939 14.12C54.7539 14.12 55.5379 13.8 56.1459 13.16C56.7699 12.504 57.0819 11.632 57.0819 10.544C57.0819 9.456 56.7699 8.592 56.1459 7.952C55.5379 7.296 54.7539 6.968 53.7939 6.968C52.8339 6.968 52.0419 7.296 51.4179 7.952C50.7939 8.592 50.4819 9.456 50.4819 10.544C50.4819 11.632 50.7939 12.504 51.4179 13.16C52.0419 13.8 52.8339 14.12 53.7939 14.12Z" fill="black"/>
</svg>
