<svg width="18" height="18" viewBox="0 0 18 18" fill="none" xmlns="http://www.w3.org/2000/svg">
<path d="M14.545 13.6625L16.9862 16.1025C17.1001 16.2204 17.1631 16.3782 17.1616 16.5421C17.1602 16.706 17.0945 16.8627 16.9786 16.9786C16.8627 17.0945 16.706 17.1602 16.5421 17.1616C16.3782 17.1631 16.2204 17.1001 16.1025 16.9862L13.6612 14.545C12.0659 15.9118 10.0032 16.6076 7.906 16.4863C5.80875 16.3651 3.83998 15.4363 2.41279 13.8948C0.985607 12.3532 0.210954 10.3189 0.251385 8.21851C0.291815 6.11815 1.14419 4.11509 2.62964 2.62964C4.11509 1.14419 6.11815 0.291815 8.21851 0.251385C10.3189 0.210954 12.3532 0.985607 13.8948 2.41279C15.4363 3.83998 16.3651 5.80875 16.4863 7.906C16.6076 10.0032 15.9118 12.0659 14.545 13.6612V13.6625ZM8.37498 15.25C10.1983 15.25 11.947 14.5257 13.2363 13.2363C14.5257 11.947 15.25 10.1983 15.25 8.37498C15.25 6.55162 14.5257 4.80293 13.2363 3.51362C11.947 2.22431 10.1983 1.49998 8.37498 1.49998C6.55162 1.49998 4.80293 2.22431 3.51362 3.51362C2.22431 4.80293 1.49998 6.55162 1.49998 8.37498C1.49998 10.1983 2.22431 11.947 3.51362 13.2363C4.80293 14.5257 6.55162 15.25 8.37498 15.25Z" fill="#959595"/>
</svg>
