<svg width="32" height="32" viewBox="0 0 32 32" fill="none" xmlns="http://www.w3.org/2000/svg">
<g clip-path="url(#clip0_52_734)">
<path d="M13.178 27H25V28.78C25 28.91 24.895 29 24.794 29H13.898C13.8398 28.998 13.784 28.977 13.739 28.9401C13.694 28.9033 13.6623 28.8526 13.649 28.796L13.178 27Z" fill="#646262"/>
<path d="M16.264 15.9999L16.535 16.9999H24.788C26.587 16.9999 28 18.4689 28 20.2279V23.7719C28 24.2049 27.914 24.6199 27.759 25.0009C27.914 25.3819 28 25.7979 28 26.2299V28.7799C28 30.5279 26.591 31.9999 24.794 31.9999H13.898C13.177 31.998 12.4768 31.7573 11.907 31.3156C11.3371 30.8738 10.9296 30.2557 10.748 29.5579L10.11 27.1279C9.9993 26.709 9.97212 26.2724 10.03 25.8429C9.7236 25.4794 9.49917 25.0541 9.372 24.5959L7.937 19.9089C7.89248 19.7643 7.86266 19.6155 7.848 19.4649L4.116 5.71793C3.632 3.97493 4.696 2.20793 6.416 1.76293L8.88 1.11193C9.44269 0.960834 10.0357 0.964115 10.5967 1.12143C11.1577 1.27875 11.6659 1.58429 12.068 2.00593C13.416 1.88193 14.562 2.83893 14.856 4.04693L15.922 8.32893L15.925 8.33893C16.135 9.22693 15.914 10.1019 15.335 10.7539C15.215 10.8886 15.0824 11.0115 14.939 11.1209L15.449 12.9999H21.5C22.33 12.9999 23 13.6699 23 14.4999C23 15.3299 22.33 15.9999 21.5 15.9999H16.264ZM10.975 22.9999H10.983L11.293 24.0389L11.294 24.0419C11.3479 24.2515 11.4539 24.4441 11.602 24.6019C11.835 24.8509 12.162 24.9999 12.517 24.9999H24.787C24.9473 24.999 25.1058 24.9665 25.2536 24.9043C25.4013 24.8421 25.5353 24.7514 25.648 24.6373C25.7606 24.5233 25.8497 24.3881 25.9101 24.2396C25.9705 24.0912 26.0011 23.9322 26 23.7719V20.2279C26.0011 20.0677 25.9705 19.9089 25.9102 19.7604C25.8499 19.612 25.7609 19.4769 25.6483 19.3629C25.5358 19.2489 25.4019 19.1581 25.2543 19.0959C25.1066 19.0336 24.9482 19.001 24.788 18.9999H14.992C14.9849 18.9377 14.9729 18.8762 14.956 18.8159L14.19 15.9999H11.5C10.67 15.9999 10 15.3299 10 14.4999C10 13.6699 10.67 12.9999 11.5 12.9999H13.377L12.55 9.95693H12.547L11.028 4.33993L11.026 4.34093L10.908 3.90693C10.8221 3.59225 10.6149 3.3245 10.3318 3.1625C10.0486 3.00051 9.7128 2.9575 9.398 3.04293L6.92 3.69993C6.76369 3.73843 6.61667 3.8078 6.48758 3.90396C6.35848 4.00012 6.24993 4.12114 6.1683 4.25988C6.08668 4.39863 6.03363 4.5523 6.01228 4.71185C5.99094 4.8714 6.00172 5.03361 6.044 5.18893L9.846 19.1889C9.83449 19.2333 9.83553 19.2801 9.849 19.3239L10.975 22.9999ZM12.043 25.9499C11.9848 26.1695 11.9851 26.4005 12.044 26.6199L12.682 29.0509C12.83 29.6109 13.329 29.9999 13.898 29.9999H24.794C25.46 29.9999 26 29.4499 26 28.7799V26.2299C26 26.0429 25.96 25.8659 25.886 25.7069C25.5522 25.8996 25.1734 26.0006 24.788 25.9999H12.517C12.3577 26.0001 12.1988 25.9833 12.043 25.9499Z" fill="#646262"/>
</g>
<defs>
<clipPath id="clip0_52_734">
<rect width="32" height="32" fill="white"/>
</clipPath>
</defs>
</svg>
