<svg width="16" height="16" viewBox="0 0 16 16" fill="none" xmlns="http://www.w3.org/2000/svg">
<path d="M8 0.440002C5.99497 0.440002 4.07205 1.2365 2.65428 2.65428C1.2365 4.07205 0.440002 5.99497 0.440002 8C0.440002 10.005 1.2365 11.928 2.65428 13.3457C4.07205 14.7635 5.99497 15.56 8 15.56C10.005 15.56 11.928 14.7635 13.3457 13.3457C14.7635 11.928 15.56 10.005 15.56 8C15.56 5.99497 14.7635 4.07205 13.3457 2.65428C11.928 1.2365 10.005 0.440002 8 0.440002ZM12.3101 10.7549L10.754 12.311L8 9.5561L5.2451 12.3101L3.689 10.754L6.4448 8L3.6899 5.2451L5.246 3.6899L8 6.4439L10.7549 3.689L12.311 5.2451L9.5552 8L12.3101 10.7549Z" fill="#FF0000"/>
</svg>
